<svg viewBox="-16 1 511 511.999" xmlns="http://www.w3.org/2000/svg"><path d="m240.425781 409.703125c-3.949219 0-7.816406 1.597656-10.609375 4.390625-2.789062 2.789062-4.386718 6.660156-4.386718 10.609375s1.597656 7.816406 4.386718 10.609375c2.792969 2.789062 6.660156 4.390625 10.609375 4.390625 3.953125 0 7.8125-1.601563 10.613281-4.390625 2.789063-2.800781 4.386719-6.660156 4.386719-10.609375s-1.597656-7.8125-4.386719-10.609375c-2.792968-2.792969-6.664062-4.390625-10.613281-4.390625zm0 0"/><path d="m129.03125 231.90625c0 61.425781 49.972656 111.398438 111.394531 111.398438 61.425781 0 111.398438-49.972657 111.398438-111.398438 0-61.421875-49.972657-111.394531-111.398438-111.394531-61.421875 0-111.394531 49.972656-111.394531 111.394531zm192.792969 0c0 44.886719-36.515625 81.398438-81.398438 81.398438-44.882812 0-81.394531-36.515626-81.394531-81.398438s36.511719-81.394531 81.394531-81.394531c44.882813-.003907 81.398438 36.511719 81.398438 81.394531zm0 0"/><path d="m474.074219 149.757812-192.246094-137.320312c-23.214844-16.582031-59.585937-16.582031-82.804687 0l-192.242188 137.316406c-6.7421875 4.816406-8.300781 14.183594-3.488281 20.925782 4.816406 6.738281 14.183593 8.300781 20.925781 3.484374l10.816406-7.722656 28.324219 315.558594h-15.726563c-8.285156 0-15 6.714844-15 15 0 8.28125 6.714844 15 15 15h385.589844c8.285156 0 15-6.71875 15-15 0-8.285156-6.714844-15-15-15h-15.726562l28.324218-315.558594 10.816407 7.726563c2.640625 1.886719 5.6875 2.796875 8.707031 2.796875 4.679688 0 9.289062-2.183594 12.21875-6.28125 4.8125-6.742188 3.253906-16.109375-3.488281-20.925782zm-86.699219 332.242188h-293.898438l-30.136718-335.777344 153.121094-109.375c12.769531-9.117187 35.164062-9.117187 47.933593 0l153.121094 109.375zm0 0"/></svg>